<?xml version="1.0" encoding="utf-8"?>
<svg viewBox="0 0 16.933 16.933" xmlns="http://www.w3.org/2000/svg">
  <defs>
    <linearGradient id="linearGradient897-3" x1="6.8792" x2="6.8792" y1="285.36" y2="283.77" gradientTransform="matrix(.99998 0 0 .99998 0 -280.06)" gradientUnits="userSpaceOnUse">
      <stop offset="0"/>
      <stop stop-opacity="0" offset="1"/>
    </linearGradient>
  </defs>
  <path d="m2.21 2.38h2.695c0.75074 0 0.78302 0.0285 1.5421 0.62962 0.78159 0.5904 0.94779 0.607 1.8636 0.607l6.4126-0.0524c0.638-5e-3 1.1517 0.51363 1.1517 1.1516v6.77c0 0.63802-0.51364 1.1517-1.1517 1.1517h-12.513c-0.63802 0-1.1517-0.51364-1.1517-1.1517v-7.9542c0-0.63802 0.51364-1.1517 1.1517-1.1517z" style="fill: rgb(230, 9, 168);"/>
  <path d="m2.2102 2.3812c-0.63801 0-1.1518 0.51384-1.1518 1.1518v2.8167h14.816v-1.633c0-0.63801-0.51387-1.1563-1.1518-1.1513l-6.4124 0.052194c-0.91582 0-1.0818-0.016798-1.8634-0.60718-0.75908-0.6011-0.79128-0.62941-1.542-0.62941h-2.695z" fill="url(#linearGradient897-3)" opacity=".35" stroke-width=".26458" style=""/>
  <rect x="1.0583" y="4.49" width="14.817" height="10.054" rx="1.1517" ry="1.1288" style="fill: rgb(230, 9, 168);"/>
  <path d="m6.5263 5.8207c-0.53744 0-0.97013 0.43266-0.97013 0.97013v4.8505c0 0.53744 0.43266 0.97013 0.97013 0.97013h3.8806c0.53744 0 0.97013-0.43266 0.97013-0.97013v-3.3953l-2.4253-2.4253zm0 0.48505h1.9402v1.4552c0 0.53744 0.43266 0.97013 0.97013 0.97013h1.4552v2.9104c0 0.26873-0.21634 0.48505-0.48505 0.48505h-3.8806c-0.26873 0-0.48505-0.21634-0.48505-0.48505v-4.8505c0-0.26873 0.21634-0.48505 0.48505-0.48505zm2.4253 0.20084 1.7394 1.7394h-1.2543c-0.26873 0-0.48505-0.21634-0.48505-0.48505z" fill="#000000" opacity=".15" stroke-width=".26458" style="paint-order: markers stroke;"/>
</svg>