<svg width="768" height="709" viewBox="0 0 768 709" fill="none" xmlns="http://www.w3.org/2000/svg">
<rect width="768" height="709" rx="30" fill="#001E2F"/>
<path d="M90.6211 320.604C90.6211 321.276 90.8878 321.92 91.3625 322.394C91.8372 322.869 92.481 323.136 93.1523 323.136C93.8237 323.136 94.4675 322.869 94.9422 322.394C95.4169 321.92 95.6836 321.276 95.6836 320.604C95.6836 319.933 95.4169 319.289 94.9422 318.815C94.4675 318.34 93.8237 318.073 93.1523 318.073C92.481 318.073 91.8372 318.34 91.3625 318.815C90.8878 319.289 90.6211 319.933 90.6211 320.604ZM94.418 326.511H91.8867C91.6547 326.511 91.4648 326.701 91.4648 326.933V341.276C91.4648 341.508 91.6547 341.698 91.8867 341.698H94.418C94.65 341.698 94.8398 341.508 94.8398 341.276V326.933C94.8398 326.701 94.65 326.511 94.418 326.511Z" fill="white"/>
<circle cx="93.1521" cy="329.885" r="21.5886" stroke="white" stroke-width="2"/>
<rect x="36" y="267" width="682.345" height="207.883" rx="28" fill="white" fill-opacity="0.06" stroke="white" stroke-width="2"/>
<path d="M50.4053 560.325C51.2191 560.325 52.0085 560.244 52.7734 560.081C53.5547 559.918 54.3278 559.715 55.0928 559.471V565.013C54.2952 565.371 53.3024 565.664 52.1143 565.892C50.9424 566.136 49.6566 566.258 48.2568 566.258C46.6292 566.258 45.1644 565.997 43.8623 565.477C42.5765 564.939 41.5592 564.02 40.8105 562.718C40.0781 561.399 39.7119 559.568 39.7119 557.225V544.065H36.1475V540.916L40.249 538.426L42.3975 532.664H47.1582V538.475H54.7998V544.065H47.1582V557.225C47.1582 558.266 47.4512 559.048 48.0371 559.568C48.6393 560.073 49.4287 560.325 50.4053 560.325ZM56.7285 538.475H64.8828L70.0342 553.831C70.1969 554.319 70.3353 554.816 70.4492 555.32C70.5632 555.825 70.6608 556.346 70.7422 556.883C70.8236 557.42 70.8887 557.981 70.9375 558.567H71.084C71.1816 557.688 71.3118 556.867 71.4746 556.102C71.6536 555.337 71.8734 554.58 72.1338 553.831L77.1875 538.475H85.1709L73.623 569.261C72.9232 571.149 72.0117 572.719 70.8887 573.973C69.7656 575.242 68.4717 576.194 67.0068 576.829C65.5583 577.464 63.9632 577.781 62.2217 577.781C61.3753 577.781 60.6429 577.732 60.0244 577.635C59.4059 577.553 58.877 577.464 58.4375 577.366V571.458C58.7793 571.539 59.2106 571.613 59.7314 571.678C60.2523 571.743 60.7975 571.775 61.3672 571.775C62.4089 571.775 63.304 571.556 64.0527 571.116C64.8014 570.677 65.4281 570.083 65.9326 569.334C66.4372 568.602 66.8359 567.796 67.1289 566.917L67.5684 565.574L56.7285 538.475ZM104.287 537.962C107.363 537.962 109.845 539.158 111.733 541.551C113.638 543.943 114.59 547.451 114.59 552.073C114.59 555.166 114.142 557.77 113.247 559.886C112.352 561.985 111.115 563.572 109.536 564.646C107.957 565.721 106.143 566.258 104.092 566.258C102.773 566.258 101.642 566.095 100.698 565.77C99.7542 565.428 98.9486 564.996 98.2812 564.476C97.6139 563.938 97.0361 563.369 96.5479 562.767H96.1572C96.2874 563.418 96.3851 564.085 96.4502 564.769C96.5153 565.452 96.5479 566.119 96.5479 566.771V577.781H89.1016V538.475H95.1562L96.2061 542.015H96.5479C97.0361 541.282 97.6302 540.607 98.3301 539.988C99.0299 539.37 99.8682 538.882 100.845 538.523C101.838 538.149 102.985 537.962 104.287 537.962ZM101.895 543.919C100.592 543.919 99.5589 544.188 98.7939 544.725C98.029 545.262 97.4674 546.067 97.1094 547.142C96.7676 548.216 96.5804 549.575 96.5479 551.219V552.024C96.5479 553.782 96.7106 555.271 97.0361 556.492C97.3779 557.713 97.9395 558.641 98.7207 559.275C99.5182 559.91 100.609 560.228 101.992 560.228C103.132 560.228 104.067 559.91 104.8 559.275C105.532 558.641 106.077 557.713 106.436 556.492C106.81 555.255 106.997 553.75 106.997 551.976C106.997 549.306 106.582 547.296 105.752 545.945C104.922 544.594 103.636 543.919 101.895 543.919ZM131.997 537.962C134.52 537.962 136.693 538.45 138.516 539.427C140.339 540.387 141.746 541.787 142.739 543.626C143.732 545.465 144.229 547.711 144.229 550.364V553.978H126.626C126.707 556.077 127.334 557.729 128.506 558.934C129.694 560.122 131.338 560.716 133.438 560.716C135.179 560.716 136.774 560.537 138.223 560.179C139.671 559.821 141.16 559.284 142.69 558.567V564.329C141.34 564.996 139.924 565.485 138.442 565.794C136.978 566.103 135.195 566.258 133.096 566.258C130.361 566.258 127.936 565.753 125.82 564.744C123.721 563.735 122.069 562.197 120.864 560.13C119.676 558.063 119.082 555.459 119.082 552.317C119.082 549.127 119.619 546.474 120.693 544.358C121.784 542.226 123.298 540.631 125.234 539.573C127.171 538.499 129.425 537.962 131.997 537.962ZM132.046 543.26C130.597 543.26 129.393 543.724 128.433 544.651C127.489 545.579 126.943 547.036 126.797 549.021H137.246C137.23 547.915 137.026 546.93 136.636 546.067C136.261 545.205 135.692 544.521 134.927 544.017C134.178 543.512 133.218 543.26 132.046 543.26ZM150.381 564.036C150.381 563.32 150.544 562.775 150.869 562.4C151.195 562.01 151.675 561.814 152.31 561.814C153.009 561.814 153.522 562.01 153.848 562.4C154.173 562.775 154.336 563.32 154.336 564.036C154.336 564.752 154.173 565.306 153.848 565.696C153.522 566.087 153.009 566.282 152.31 566.282C151.675 566.282 151.195 566.087 150.869 565.696C150.544 565.306 150.381 564.752 150.381 564.036ZM150.381 541.087C150.381 540.354 150.544 539.801 150.869 539.427C151.195 539.036 151.675 538.841 152.31 538.841C153.009 538.841 153.522 539.036 153.848 539.427C154.173 539.801 154.336 540.354 154.336 541.087C154.336 541.787 154.173 542.332 153.848 542.723C153.522 543.113 153.009 543.309 152.31 543.309C151.675 543.309 151.195 543.113 150.869 542.723C150.544 542.332 150.381 541.787 150.381 541.087ZM192.275 558.812C192.275 560.39 191.877 561.741 191.079 562.864C190.298 563.971 189.15 564.817 187.637 565.403C186.123 565.973 184.259 566.258 182.046 566.258C180.207 566.258 178.563 566.095 177.114 565.77C175.666 565.444 174.453 565.045 173.477 564.573V562.132C174.697 562.734 176.048 563.222 177.529 563.597C179.01 563.971 180.532 564.158 182.095 564.158C184.829 564.158 186.799 563.694 188.003 562.767C189.207 561.839 189.81 560.569 189.81 558.958C189.81 557.9 189.508 557.029 188.906 556.346C188.32 555.646 187.474 555.044 186.367 554.539C185.26 554.035 183.926 553.522 182.363 553.001C180.736 552.448 179.287 551.902 178.018 551.365C176.764 550.812 175.78 550.088 175.063 549.192C174.347 548.281 173.989 547.044 173.989 545.481C173.989 543.349 174.844 541.689 176.553 540.501C178.262 539.313 180.557 538.719 183.438 538.719C185.033 538.719 186.514 538.873 187.881 539.183C189.264 539.476 190.518 539.858 191.641 540.33L190.762 542.43C189.753 541.958 188.589 541.575 187.271 541.282C185.952 540.989 184.634 540.843 183.315 540.843C181.151 540.843 179.458 541.225 178.237 541.99C177.017 542.755 176.406 543.878 176.406 545.359C176.406 546.499 176.699 547.394 177.285 548.045C177.871 548.68 178.709 549.217 179.8 549.656C180.89 550.079 182.184 550.551 183.682 551.072C185.228 551.609 186.652 552.171 187.954 552.757C189.272 553.343 190.322 554.1 191.104 555.027C191.885 555.955 192.275 557.216 192.275 558.812ZM206.143 564.134C206.908 564.134 207.616 564.077 208.267 563.963C208.934 563.849 209.52 563.702 210.024 563.523V565.574C209.504 565.753 208.893 565.908 208.193 566.038C207.493 566.185 206.72 566.258 205.874 566.258C204.377 566.258 203.132 565.981 202.139 565.428C201.146 564.858 200.397 564.004 199.893 562.864C199.388 561.709 199.136 560.244 199.136 558.47V541.282H195.181V539.817L199.111 539.061L199.966 532.811H201.602V539.231H209.878V541.282H201.602V558.323C201.602 560.228 201.951 561.676 202.651 562.669C203.368 563.646 204.531 564.134 206.143 564.134ZM226.284 538.768C226.984 538.768 227.643 538.808 228.262 538.89C228.88 538.971 229.458 539.085 229.995 539.231L229.604 541.502C229.067 541.355 228.522 541.25 227.969 541.185C227.415 541.103 226.821 541.062 226.187 541.062C224.933 541.062 223.81 541.299 222.817 541.771C221.841 542.243 221.011 542.918 220.327 543.797C219.644 544.676 219.123 545.734 218.765 546.971C218.407 548.208 218.228 549.591 218.228 551.121V565.77H215.737V539.231H217.861L218.105 544.236H218.252C218.659 543.211 219.229 542.291 219.961 541.478C220.71 540.647 221.613 539.988 222.671 539.5C223.729 539.012 224.933 538.768 226.284 538.768ZM237.661 539.231V565.77H235.195V539.231H237.661ZM236.465 529.417C237.083 529.417 237.539 529.604 237.832 529.979C238.125 530.337 238.271 530.825 238.271 531.443C238.271 532.062 238.125 532.55 237.832 532.908C237.539 533.266 237.083 533.445 236.465 533.445C235.879 533.445 235.439 533.266 235.146 532.908C234.854 532.55 234.707 532.062 234.707 531.443C234.707 530.825 234.854 530.337 235.146 529.979C235.439 529.604 235.879 529.417 236.465 529.417ZM258.218 538.719C261.196 538.719 263.483 539.5 265.078 541.062C266.673 542.625 267.471 545.075 267.471 548.411V565.77H265.029V548.558C265.029 545.921 264.427 543.984 263.223 542.747C262.018 541.51 260.269 540.892 257.974 540.892C255.06 540.892 252.83 541.746 251.284 543.455C249.754 545.148 248.989 547.711 248.989 551.146V565.77H246.523V539.231H248.525L248.892 544.065H249.038C249.51 543.073 250.153 542.177 250.967 541.38C251.797 540.566 252.814 539.923 254.019 539.451C255.223 538.963 256.623 538.719 258.218 538.719ZM283.096 577.781C279.759 577.781 277.163 577.138 275.308 575.853C273.468 574.567 272.549 572.768 272.549 570.457C272.549 568.667 273.11 567.12 274.233 565.818C275.356 564.533 276.878 563.759 278.799 563.499C278.034 563.141 277.407 562.653 276.919 562.034C276.447 561.416 276.211 560.7 276.211 559.886C276.211 558.974 276.496 558.128 277.065 557.347C277.635 556.549 278.49 555.817 279.629 555.149C278.099 554.596 276.895 553.66 276.016 552.342C275.137 551.007 274.697 549.404 274.697 547.532C274.697 545.742 275.08 544.188 275.845 542.869C276.61 541.551 277.692 540.534 279.092 539.817C280.508 539.085 282.176 538.719 284.097 538.719C284.683 538.719 285.212 538.735 285.684 538.768C286.172 538.8 286.619 538.857 287.026 538.938C287.433 539.004 287.799 539.093 288.125 539.207H296.694V540.965L291.226 541.331C291.942 542.194 292.479 543.13 292.837 544.139C293.195 545.132 293.374 546.181 293.374 547.288C293.374 549.925 292.544 552.016 290.884 553.562C289.224 555.109 286.912 555.882 283.95 555.882C283.136 555.882 282.339 555.809 281.558 555.662C280.565 556.248 279.808 556.842 279.287 557.444C278.766 558.03 278.506 558.763 278.506 559.642C278.506 560.195 278.669 560.651 278.994 561.009C279.32 561.351 279.792 561.619 280.41 561.814C281.029 561.993 281.785 562.083 282.681 562.083H287.344C290.225 562.083 292.43 562.669 293.96 563.841C295.49 565.013 296.255 566.738 296.255 569.017C296.255 571.8 295.107 573.956 292.812 575.486C290.534 577.016 287.295 577.781 283.096 577.781ZM283.267 575.706C285.594 575.706 287.531 575.454 289.077 574.949C290.64 574.445 291.812 573.696 292.593 572.703C293.374 571.727 293.765 570.514 293.765 569.065C293.765 567.877 293.48 566.958 292.91 566.307C292.34 565.656 291.535 565.208 290.493 564.964C289.451 564.703 288.223 564.573 286.807 564.573H282.363C280.947 564.573 279.686 564.769 278.579 565.159C277.472 565.534 276.61 566.136 275.991 566.966C275.389 567.796 275.088 568.903 275.088 570.286C275.088 572.06 275.78 573.403 277.163 574.314C278.563 575.242 280.597 575.706 283.267 575.706ZM284.048 553.904C286.245 553.904 287.93 553.351 289.102 552.244C290.273 551.137 290.859 549.534 290.859 547.435C290.859 545.188 290.257 543.504 289.053 542.381C287.848 541.258 286.164 540.696 283.999 540.696C281.899 540.696 280.247 541.299 279.043 542.503C277.855 543.691 277.261 545.368 277.261 547.532C277.261 549.55 277.83 551.121 278.97 552.244C280.109 553.351 281.802 553.904 284.048 553.904ZM47.5488 634.258C44.5052 634.258 42.0231 633.07 40.1025 630.693C38.1982 628.301 37.2461 624.793 37.2461 620.171C37.2461 615.5 38.2145 611.968 40.1514 609.575C42.0882 607.166 44.6191 605.962 47.7441 605.962C49.0462 605.962 50.1937 606.141 51.1865 606.499C52.1794 606.857 53.0339 607.337 53.75 607.939C54.4824 608.542 55.1009 609.217 55.6055 609.966H55.8496C55.752 609.445 55.6299 608.68 55.4834 607.671C55.3532 606.646 55.2881 605.596 55.2881 604.521V595.781H62.7588V633.77H57.0459L55.6055 630.229H55.2881C54.8161 630.978 54.222 631.662 53.5059 632.28C52.806 632.882 51.9678 633.363 50.9912 633.721C50.0146 634.079 48.8672 634.258 47.5488 634.258ZM50.1611 628.325C52.1956 628.325 53.6279 627.723 54.458 626.519C55.3044 625.298 55.752 623.467 55.8008 621.025V620.22C55.8008 617.567 55.3939 615.54 54.5801 614.141C53.7663 612.725 52.2526 612.017 50.0391 612.017C48.3952 612.017 47.1094 612.725 46.1816 614.141C45.2539 615.557 44.79 617.599 44.79 620.269C44.79 622.938 45.2539 624.948 46.1816 626.299C47.1257 627.65 48.4521 628.325 50.1611 628.325ZM81.7285 605.913C85.3906 605.913 88.1982 606.711 90.1514 608.306C92.1045 609.901 93.0811 612.326 93.0811 615.581V633.77H87.8809L86.4404 630.059H86.2451C85.4639 631.035 84.6663 631.833 83.8525 632.451C83.0387 633.07 82.1029 633.525 81.0449 633.818C79.987 634.111 78.7012 634.258 77.1875 634.258C75.5762 634.258 74.1276 633.949 72.8418 633.33C71.5723 632.712 70.5713 631.768 69.8389 630.498C69.1064 629.212 68.7402 627.585 68.7402 625.615C68.7402 622.718 69.7575 620.586 71.792 619.219C73.8265 617.835 76.8783 617.07 80.9473 616.924L85.6836 616.777V615.581C85.6836 614.149 85.3092 613.099 84.5605 612.432C83.8118 611.764 82.7702 611.431 81.4355 611.431C80.1172 611.431 78.8232 611.618 77.5537 611.992C76.2842 612.367 75.0146 612.839 73.7451 613.408L71.2793 608.379C72.7279 607.614 74.3473 607.012 76.1377 606.572C77.9443 606.133 79.8079 605.913 81.7285 605.913ZM85.6836 621.123L82.8027 621.221C80.3939 621.286 78.7174 621.717 77.7734 622.515C76.8457 623.312 76.3818 624.362 76.3818 625.664C76.3818 626.803 76.7155 627.617 77.3828 628.105C78.0501 628.577 78.9209 628.813 79.9951 628.813C81.5902 628.813 82.9329 628.341 84.0234 627.397C85.1302 626.453 85.6836 625.111 85.6836 623.369V621.123ZM112.271 628.325C113.084 628.325 113.874 628.244 114.639 628.081C115.42 627.918 116.193 627.715 116.958 627.471V633.013C116.16 633.371 115.168 633.664 113.979 633.892C112.808 634.136 111.522 634.258 110.122 634.258C108.494 634.258 107.03 633.997 105.728 633.477C104.442 632.939 103.424 632.02 102.676 630.718C101.943 629.399 101.577 627.568 101.577 625.225V612.065H98.0127V608.916L102.114 606.426L104.263 600.664H109.023V606.475H116.665V612.065H109.023V625.225C109.023 626.266 109.316 627.048 109.902 627.568C110.505 628.073 111.294 628.325 112.271 628.325ZM133.682 605.913C137.344 605.913 140.151 606.711 142.104 608.306C144.058 609.901 145.034 612.326 145.034 615.581V633.77H139.834L138.394 630.059H138.198C137.417 631.035 136.619 631.833 135.806 632.451C134.992 633.07 134.056 633.525 132.998 633.818C131.94 634.111 130.654 634.258 129.141 634.258C127.529 634.258 126.081 633.949 124.795 633.33C123.525 632.712 122.524 631.768 121.792 630.498C121.06 629.212 120.693 627.585 120.693 625.615C120.693 622.718 121.711 620.586 123.745 619.219C125.78 617.835 128.831 617.07 132.9 616.924L137.637 616.777V615.581C137.637 614.149 137.262 613.099 136.514 612.432C135.765 611.764 134.723 611.431 133.389 611.431C132.07 611.431 130.776 611.618 129.507 611.992C128.237 612.367 126.968 612.839 125.698 613.408L123.232 608.379C124.681 607.614 126.3 607.012 128.091 606.572C129.897 606.133 131.761 605.913 133.682 605.913ZM137.637 621.123L134.756 621.221C132.347 621.286 130.671 621.717 129.727 622.515C128.799 623.312 128.335 624.362 128.335 625.664C128.335 626.803 128.669 627.617 129.336 628.105C130.003 628.577 130.874 628.813 131.948 628.813C133.543 628.813 134.886 628.341 135.977 627.397C137.083 626.453 137.637 625.111 137.637 623.369V621.123ZM152.822 632.036C152.822 631.32 152.985 630.775 153.311 630.4C153.636 630.01 154.116 629.814 154.751 629.814C155.451 629.814 155.964 630.01 156.289 630.4C156.615 630.775 156.777 631.32 156.777 632.036C156.777 632.752 156.615 633.306 156.289 633.696C155.964 634.087 155.451 634.282 154.751 634.282C154.116 634.282 153.636 634.087 153.311 633.696C152.985 633.306 152.822 632.752 152.822 632.036ZM152.822 609.087C152.822 608.354 152.985 607.801 153.311 607.427C153.636 607.036 154.116 606.841 154.751 606.841C155.451 606.841 155.964 607.036 156.289 607.427C156.615 607.801 156.777 608.354 156.777 609.087C156.777 609.787 156.615 610.332 156.289 610.723C155.964 611.113 155.451 611.309 154.751 611.309C154.116 611.309 153.636 611.113 153.311 610.723C152.985 610.332 152.822 609.787 152.822 609.087ZM198.745 607.231V633.77H196.743L196.377 628.984H196.23C195.775 629.961 195.132 630.848 194.302 631.646C193.472 632.443 192.454 633.078 191.25 633.55C190.046 634.022 188.646 634.258 187.051 634.258C185.016 634.258 183.307 633.908 181.924 633.208C180.557 632.492 179.523 631.418 178.823 629.985C178.123 628.553 177.773 626.763 177.773 624.614V607.231H180.239V624.37C180.239 627.023 180.833 628.976 182.021 630.229C183.226 631.483 184.984 632.109 187.295 632.109C189.248 632.109 190.884 631.735 192.202 630.986C193.537 630.238 194.546 629.106 195.229 627.593C195.929 626.063 196.279 624.159 196.279 621.88V607.231H198.745ZM219.351 606.719C222.329 606.719 224.616 607.5 226.211 609.062C227.806 610.625 228.604 613.075 228.604 616.411V633.77H226.162V616.558C226.162 613.921 225.56 611.984 224.355 610.747C223.151 609.51 221.401 608.892 219.106 608.892C216.193 608.892 213.963 609.746 212.417 611.455C210.887 613.148 210.122 615.711 210.122 619.146V633.77H207.656V607.231H209.658L210.024 612.065H210.171C210.643 611.073 211.286 610.177 212.1 609.38C212.93 608.566 213.947 607.923 215.151 607.451C216.356 606.963 217.756 606.719 219.351 606.719ZM239.663 595.781V614.946C239.663 616.134 239.647 617.347 239.614 618.584C239.598 619.805 239.574 621.025 239.541 622.246H239.59C240.062 621.693 240.55 621.115 241.055 620.513C241.576 619.894 242.088 619.3 242.593 618.73L253.091 607.231H256.069L245.596 618.608L256.997 633.77H254.043L243.911 620.244L239.663 624.712V633.77H237.197V595.781H239.663ZM273.11 606.719C276.089 606.719 278.376 607.5 279.971 609.062C281.566 610.625 282.363 613.075 282.363 616.411V633.77H279.922V616.558C279.922 613.921 279.32 611.984 278.115 610.747C276.911 609.51 275.161 608.892 272.866 608.892C269.953 608.892 267.723 609.746 266.177 611.455C264.647 613.148 263.882 615.711 263.882 619.146V633.77H261.416V607.231H263.418L263.784 612.065H263.931C264.403 611.073 265.046 610.177 265.859 609.38C266.689 608.566 267.707 607.923 268.911 607.451C270.116 606.963 271.515 606.719 273.11 606.719ZM312.979 620.464C312.979 622.515 312.726 624.386 312.222 626.079C311.717 627.756 310.968 629.204 309.976 630.425C308.983 631.646 307.746 632.59 306.265 633.257C304.8 633.924 303.091 634.258 301.138 634.258C299.282 634.258 297.63 633.932 296.182 633.281C294.733 632.614 293.504 631.67 292.495 630.449C291.502 629.229 290.745 627.78 290.225 626.104C289.704 624.411 289.443 622.531 289.443 620.464C289.443 617.616 289.915 615.166 290.859 613.115C291.82 611.048 293.187 609.469 294.961 608.379C296.751 607.272 298.892 606.719 301.382 606.719C303.953 606.719 306.094 607.305 307.803 608.477C309.528 609.632 310.822 611.243 311.685 613.311C312.547 615.378 312.979 617.762 312.979 620.464ZM291.982 620.464C291.982 622.791 292.316 624.826 292.983 626.567C293.651 628.309 294.66 629.668 296.011 630.645C297.378 631.621 299.103 632.109 301.187 632.109C303.319 632.109 305.068 631.621 306.436 630.645C307.803 629.668 308.812 628.301 309.463 626.543C310.114 624.785 310.439 622.759 310.439 620.464C310.439 618.234 310.13 616.248 309.512 614.507C308.893 612.765 307.917 611.398 306.582 610.405C305.247 609.396 303.506 608.892 301.357 608.892C298.281 608.892 295.946 609.917 294.351 611.968C292.772 614.019 291.982 616.851 291.982 620.464ZM341.519 633.77L335.879 615.947C335.7 615.41 335.537 614.897 335.391 614.409C335.244 613.921 335.106 613.449 334.976 612.993C334.845 612.537 334.723 612.098 334.609 611.675C334.495 611.235 334.382 610.804 334.268 610.381H334.146C334.032 610.804 333.918 611.235 333.804 611.675C333.69 612.114 333.568 612.57 333.438 613.042C333.307 613.514 333.169 613.994 333.022 614.482C332.876 614.971 332.713 615.475 332.534 615.996L326.699 633.77H324.16L316.616 607.231H319.229L323.892 624.199C324.168 625.192 324.404 626.079 324.6 626.86C324.795 627.642 324.966 628.35 325.112 628.984C325.259 629.619 325.389 630.221 325.503 630.791H325.625C325.723 630.384 325.828 629.961 325.942 629.521C326.056 629.066 326.178 628.577 326.309 628.057C326.439 627.536 326.593 626.982 326.772 626.396C326.951 625.811 327.147 625.176 327.358 624.492L333.047 607.231H335.488L340.957 624.443C341.217 625.273 341.453 626.071 341.665 626.836C341.893 627.585 342.088 628.285 342.251 628.936C342.43 629.587 342.576 630.197 342.69 630.767H342.837C342.902 630.229 343 629.644 343.13 629.009C343.276 628.358 343.447 627.633 343.643 626.836C343.854 626.038 344.09 625.16 344.351 624.199L348.843 607.231H351.333L344.131 633.77H341.519ZM368.13 606.719C371.108 606.719 373.395 607.5 374.99 609.062C376.585 610.625 377.383 613.075 377.383 616.411V633.77H374.941V616.558C374.941 613.921 374.339 611.984 373.135 610.747C371.93 609.51 370.181 608.892 367.886 608.892C364.972 608.892 362.743 609.746 361.196 611.455C359.666 613.148 358.901 615.711 358.901 619.146V633.77H356.436V607.231H358.438L358.804 612.065H358.95C359.422 611.073 360.065 610.177 360.879 609.38C361.709 608.566 362.726 607.923 363.931 607.451C365.135 606.963 366.535 606.719 368.13 606.719Z" fill="white"/>
<path d="M159.59 339.786L156.48 331.708H146.887L143.715 339.786H142.074L151.059 316.864H152.527L161.277 339.786H159.59ZM155.965 330.255L152.809 321.692C152.725 321.474 152.621 321.192 152.496 320.849C152.382 320.505 152.257 320.14 152.121 319.755C151.996 319.369 151.871 319.005 151.746 318.661C151.642 319.026 151.527 319.39 151.402 319.755C151.277 320.119 151.158 320.474 151.043 320.817C150.928 321.151 150.819 321.453 150.715 321.724L147.434 330.255H155.965ZM173.98 315.474V322.38C173.98 322.974 173.97 323.625 173.949 324.333C173.928 325.041 173.908 325.63 173.887 326.099H173.98C174.387 325.047 175.095 324.177 176.105 323.489C177.116 322.802 178.376 322.458 179.887 322.458C182.095 322.458 183.798 323.203 184.996 324.692C186.204 326.182 186.809 328.364 186.809 331.239C186.809 333 186.538 334.547 185.996 335.88C185.454 337.203 184.647 338.239 183.574 338.989C182.512 339.729 181.178 340.099 179.574 340.099C178.126 340.099 176.944 339.797 176.027 339.192C175.111 338.578 174.444 337.812 174.027 336.896H173.902L173.605 339.786H172.402V315.474H173.98ZM179.715 323.833C178.371 323.833 177.277 324.125 176.434 324.708C175.59 325.281 174.97 326.119 174.574 327.224C174.178 328.328 173.98 329.677 173.98 331.271V331.521C173.98 333.864 174.408 335.651 175.262 336.88C176.116 338.109 177.501 338.724 179.418 338.724C181.314 338.724 182.746 338.078 183.715 336.786C184.694 335.484 185.184 333.635 185.184 331.239C185.184 328.791 184.73 326.948 183.824 325.708C182.918 324.458 181.548 323.833 179.715 323.833ZM193.09 339.786H191.496V315.474H193.09V339.786ZM212.824 331.271C212.824 332.583 212.663 333.781 212.34 334.864C212.017 335.937 211.538 336.864 210.902 337.646C210.267 338.427 209.475 339.031 208.527 339.458C207.59 339.885 206.496 340.099 205.246 340.099C204.059 340.099 203.001 339.89 202.074 339.474C201.147 339.047 200.361 338.442 199.715 337.661C199.079 336.88 198.595 335.953 198.262 334.88C197.928 333.797 197.762 332.593 197.762 331.271C197.762 329.448 198.064 327.88 198.668 326.567C199.283 325.244 200.158 324.234 201.293 323.536C202.439 322.828 203.809 322.474 205.402 322.474C207.048 322.474 208.418 322.849 209.512 323.599C210.616 324.338 211.444 325.369 211.996 326.692C212.548 328.015 212.824 329.541 212.824 331.271ZM199.387 331.271C199.387 332.76 199.6 334.062 200.027 335.177C200.454 336.291 201.1 337.161 201.965 337.786C202.84 338.411 203.944 338.724 205.277 338.724C206.642 338.724 207.762 338.411 208.637 337.786C209.512 337.161 210.158 336.286 210.574 335.161C210.991 334.036 211.199 332.739 211.199 331.271C211.199 329.843 211.001 328.573 210.605 327.458C210.21 326.343 209.585 325.468 208.73 324.833C207.876 324.187 206.762 323.864 205.387 323.864C203.418 323.864 201.923 324.521 200.902 325.833C199.892 327.146 199.387 328.958 199.387 331.271ZM224.324 340.099C222.637 340.099 221.21 339.75 220.043 339.052C218.887 338.343 218.012 337.338 217.418 336.036C216.835 334.724 216.543 333.172 216.543 331.38C216.543 329.515 216.882 327.922 217.559 326.599C218.236 325.265 219.189 324.244 220.418 323.536C221.647 322.828 223.09 322.474 224.746 322.474C225.559 322.474 226.314 322.547 227.012 322.692C227.71 322.838 228.34 323.041 228.902 323.302L228.48 324.692C227.897 324.432 227.277 324.234 226.621 324.099C225.965 323.963 225.335 323.896 224.73 323.896C223.335 323.896 222.147 324.203 221.168 324.817C220.199 325.422 219.454 326.286 218.934 327.411C218.423 328.526 218.168 329.843 218.168 331.364C218.168 332.791 218.387 334.057 218.824 335.161C219.262 336.255 219.934 337.119 220.84 337.755C221.746 338.38 222.908 338.692 224.324 338.692C225.147 338.692 225.928 338.609 226.668 338.442C227.418 338.276 228.1 338.062 228.715 337.802V339.239C228.163 339.489 227.522 339.692 226.793 339.849C226.074 340.015 225.251 340.099 224.324 340.099ZM234.309 315.474V327.739C234.309 328.5 234.298 329.276 234.277 330.067C234.267 330.849 234.251 331.63 234.23 332.411H234.262C234.564 332.057 234.876 331.687 235.199 331.302C235.533 330.906 235.861 330.526 236.184 330.161L242.902 322.802H244.809L238.105 330.083L245.402 339.786H243.512L237.027 331.13L234.309 333.989V339.786H232.73V315.474H234.309ZM258.121 322.802V339.786H256.543V322.802H258.121ZM257.355 316.521C257.751 316.521 258.043 316.64 258.23 316.88C258.418 317.109 258.512 317.422 258.512 317.817C258.512 318.213 258.418 318.526 258.23 318.755C258.043 318.984 257.751 319.099 257.355 319.099C256.98 319.099 256.699 318.984 256.512 318.755C256.324 318.526 256.23 318.213 256.23 317.817C256.23 317.422 256.324 317.109 256.512 316.88C256.699 316.64 256.98 316.521 257.355 316.521ZM274.418 335.333C274.418 336.343 274.163 337.208 273.652 337.927C273.152 338.635 272.418 339.177 271.449 339.552C270.48 339.916 269.288 340.099 267.871 340.099C266.694 340.099 265.642 339.994 264.715 339.786C263.788 339.578 263.012 339.323 262.387 339.021V337.458C263.168 337.843 264.033 338.156 264.98 338.396C265.928 338.635 266.902 338.755 267.902 338.755C269.652 338.755 270.913 338.458 271.684 337.864C272.454 337.271 272.84 336.458 272.84 335.427C272.84 334.75 272.647 334.192 272.262 333.755C271.887 333.307 271.345 332.922 270.637 332.599C269.928 332.276 269.074 331.948 268.074 331.614C267.033 331.26 266.105 330.911 265.293 330.567C264.491 330.213 263.861 329.75 263.402 329.177C262.944 328.593 262.715 327.802 262.715 326.802C262.715 325.437 263.262 324.375 264.355 323.614C265.449 322.854 266.918 322.474 268.762 322.474C269.783 322.474 270.73 322.573 271.605 322.771C272.491 322.958 273.293 323.203 274.012 323.505L273.449 324.849C272.803 324.547 272.059 324.302 271.215 324.114C270.371 323.927 269.527 323.833 268.684 323.833C267.298 323.833 266.215 324.078 265.434 324.567C264.652 325.057 264.262 325.776 264.262 326.724C264.262 327.453 264.449 328.026 264.824 328.442C265.199 328.849 265.736 329.192 266.434 329.474C267.132 329.744 267.96 330.047 268.918 330.38C269.908 330.724 270.819 331.083 271.652 331.458C272.496 331.833 273.168 332.317 273.668 332.911C274.168 333.505 274.418 334.312 274.418 335.333ZM292.949 322.505C294.814 322.505 296.21 322.974 297.137 323.911C298.064 324.849 298.527 326.343 298.527 328.396V339.786H297.309L297.027 336.817H296.934C296.569 337.453 296.126 338.021 295.605 338.521C295.085 339.01 294.444 339.396 293.684 339.677C292.934 339.958 292.017 340.099 290.934 340.099C289.84 340.099 288.902 339.916 288.121 339.552C287.35 339.187 286.751 338.656 286.324 337.958C285.908 337.26 285.699 336.411 285.699 335.411C285.699 333.724 286.397 332.442 287.793 331.567C289.189 330.682 291.194 330.182 293.809 330.067L296.965 329.911V328.677C296.965 326.937 296.621 325.698 295.934 324.958C295.246 324.218 294.23 323.849 292.887 323.849C292.012 323.849 291.168 323.963 290.355 324.192C289.553 324.411 288.736 324.729 287.902 325.146L287.402 323.833C288.215 323.448 289.085 323.13 290.012 322.88C290.949 322.63 291.928 322.505 292.949 322.505ZM296.949 331.146L293.98 331.271C291.824 331.375 290.184 331.76 289.059 332.427C287.934 333.093 287.371 334.093 287.371 335.427C287.371 336.5 287.704 337.323 288.371 337.896C289.048 338.468 289.986 338.755 291.184 338.755C293.048 338.755 294.47 338.224 295.449 337.161C296.439 336.099 296.939 334.651 296.949 332.817V331.146ZM322.918 335.333C322.918 336.343 322.663 337.208 322.152 337.927C321.652 338.635 320.918 339.177 319.949 339.552C318.98 339.916 317.788 340.099 316.371 340.099C315.194 340.099 314.142 339.994 313.215 339.786C312.288 339.578 311.512 339.323 310.887 339.021V337.458C311.668 337.843 312.533 338.156 313.48 338.396C314.428 338.635 315.402 338.755 316.402 338.755C318.152 338.755 319.413 338.458 320.184 337.864C320.954 337.271 321.34 336.458 321.34 335.427C321.34 334.75 321.147 334.192 320.762 333.755C320.387 333.307 319.845 332.922 319.137 332.599C318.428 332.276 317.574 331.948 316.574 331.614C315.533 331.26 314.605 330.911 313.793 330.567C312.991 330.213 312.361 329.75 311.902 329.177C311.444 328.593 311.215 327.802 311.215 326.802C311.215 325.437 311.762 324.375 312.855 323.614C313.949 322.854 315.418 322.474 317.262 322.474C318.283 322.474 319.23 322.573 320.105 322.771C320.991 322.958 321.793 323.203 322.512 323.505L321.949 324.849C321.303 324.547 320.559 324.302 319.715 324.114C318.871 323.927 318.027 323.833 317.184 323.833C315.798 323.833 314.715 324.078 313.934 324.567C313.152 325.057 312.762 325.776 312.762 326.724C312.762 327.453 312.949 328.026 313.324 328.442C313.699 328.849 314.236 329.192 314.934 329.474C315.632 329.744 316.46 330.047 317.418 330.38C318.408 330.724 319.319 331.083 320.152 331.458C320.996 331.833 321.668 332.317 322.168 332.911C322.668 333.505 322.918 334.312 322.918 335.333ZM328.777 322.802V339.786H327.199V322.802H328.777ZM328.012 316.521C328.408 316.521 328.699 316.64 328.887 316.88C329.074 317.109 329.168 317.422 329.168 317.817C329.168 318.213 329.074 318.526 328.887 318.755C328.699 318.984 328.408 319.099 328.012 319.099C327.637 319.099 327.355 318.984 327.168 318.755C326.98 318.526 326.887 318.213 326.887 317.817C326.887 317.422 326.98 317.109 327.168 316.88C327.355 316.64 327.637 316.521 328.012 316.521ZM341.934 322.474C343.84 322.474 345.303 322.974 346.324 323.974C347.345 324.974 347.855 326.541 347.855 328.677V339.786H346.293V328.771C346.293 327.083 345.908 325.843 345.137 325.052C344.366 324.26 343.246 323.864 341.777 323.864C339.913 323.864 338.486 324.411 337.496 325.505C336.517 326.588 336.027 328.229 336.027 330.427V339.786H334.449V322.802H335.73L335.965 325.896H336.059C336.361 325.26 336.772 324.687 337.293 324.177C337.824 323.656 338.475 323.244 339.246 322.942C340.017 322.63 340.913 322.474 341.934 322.474ZM357.855 347.474C355.72 347.474 354.059 347.062 352.871 346.239C351.694 345.416 351.105 344.265 351.105 342.786C351.105 341.64 351.465 340.651 352.184 339.817C352.902 338.994 353.876 338.5 355.105 338.333C354.616 338.104 354.215 337.791 353.902 337.396C353.6 337 353.449 336.541 353.449 336.021C353.449 335.437 353.632 334.896 353.996 334.396C354.361 333.885 354.908 333.416 355.637 332.989C354.658 332.635 353.887 332.036 353.324 331.192C352.762 330.338 352.48 329.312 352.48 328.114C352.48 326.968 352.725 325.974 353.215 325.13C353.704 324.286 354.397 323.635 355.293 323.177C356.199 322.708 357.267 322.474 358.496 322.474C358.871 322.474 359.21 322.484 359.512 322.505C359.824 322.526 360.111 322.562 360.371 322.614C360.632 322.656 360.866 322.713 361.074 322.786H366.559V323.911L363.059 324.146C363.517 324.698 363.861 325.297 364.09 325.942C364.319 326.578 364.434 327.25 364.434 327.958C364.434 329.646 363.902 330.984 362.84 331.974C361.777 332.963 360.298 333.458 358.402 333.458C357.882 333.458 357.371 333.411 356.871 333.317C356.236 333.692 355.751 334.073 355.418 334.458C355.085 334.833 354.918 335.302 354.918 335.864C354.918 336.218 355.022 336.51 355.23 336.739C355.439 336.958 355.741 337.13 356.137 337.255C356.533 337.369 357.017 337.427 357.59 337.427H360.574C362.418 337.427 363.829 337.802 364.809 338.552C365.788 339.302 366.277 340.406 366.277 341.864C366.277 343.646 365.543 345.026 364.074 346.005C362.616 346.984 360.543 347.474 357.855 347.474ZM357.965 346.146C359.454 346.146 360.694 345.984 361.684 345.661C362.684 345.338 363.434 344.859 363.934 344.224C364.434 343.599 364.684 342.823 364.684 341.896C364.684 341.135 364.501 340.547 364.137 340.13C363.772 339.713 363.257 339.427 362.59 339.271C361.923 339.104 361.137 339.021 360.23 339.021H357.387C356.48 339.021 355.673 339.146 354.965 339.396C354.257 339.635 353.704 340.021 353.309 340.552C352.923 341.083 352.73 341.791 352.73 342.677C352.73 343.812 353.173 344.672 354.059 345.255C354.954 345.849 356.257 346.146 357.965 346.146ZM358.465 332.192C359.871 332.192 360.949 331.838 361.699 331.13C362.449 330.422 362.824 329.396 362.824 328.052C362.824 326.614 362.439 325.536 361.668 324.817C360.897 324.099 359.819 323.739 358.434 323.739C357.09 323.739 356.033 324.125 355.262 324.896C354.501 325.656 354.121 326.729 354.121 328.114C354.121 329.406 354.486 330.411 355.215 331.13C355.944 331.838 357.027 332.192 358.465 332.192ZM371.59 339.786H369.996V315.474H371.59V339.786ZM383.668 322.474C385.116 322.474 386.319 322.812 387.277 323.489C388.246 324.166 388.965 325.093 389.434 326.271C389.913 327.448 390.152 328.797 390.152 330.317V331.458H377.887C377.887 333.791 378.423 335.583 379.496 336.833C380.579 338.083 382.126 338.708 384.137 338.708C385.189 338.708 386.1 338.625 386.871 338.458C387.652 338.281 388.517 337.984 389.465 337.567V339.021C388.632 339.396 387.798 339.666 386.965 339.833C386.132 340.01 385.173 340.099 384.09 340.099C382.371 340.099 380.928 339.744 379.762 339.036C378.605 338.317 377.73 337.307 377.137 336.005C376.553 334.703 376.262 333.182 376.262 331.442C376.262 329.744 376.543 328.218 377.105 326.864C377.678 325.51 378.512 324.442 379.605 323.661C380.71 322.869 382.064 322.474 383.668 322.474ZM383.652 323.833C382.027 323.833 380.71 324.375 379.699 325.458C378.699 326.531 378.111 328.083 377.934 330.114H388.512C388.512 328.875 388.335 327.781 387.98 326.833C387.626 325.885 387.09 325.151 386.371 324.63C385.663 324.099 384.757 323.833 383.652 323.833ZM410.668 322.474C412.855 322.474 414.548 323.208 415.746 324.677C416.954 326.146 417.559 328.312 417.559 331.177C417.559 333.093 417.272 334.718 416.699 336.052C416.126 337.375 415.309 338.38 414.246 339.067C413.194 339.755 411.928 340.099 410.449 340.099C409.428 340.099 408.538 339.948 407.777 339.646C407.027 339.333 406.402 338.916 405.902 338.396C405.402 337.864 405.017 337.281 404.746 336.646H404.637C404.668 337.239 404.694 337.859 404.715 338.505C404.736 339.151 404.746 339.76 404.746 340.333V347.302H403.152V322.802H404.465L404.652 326.192H404.746C405.027 325.547 405.423 324.937 405.934 324.364C406.444 323.791 407.09 323.333 407.871 322.989C408.652 322.646 409.585 322.474 410.668 322.474ZM410.465 323.864C409.184 323.864 408.116 324.146 407.262 324.708C406.418 325.26 405.788 326.073 405.371 327.146C404.965 328.208 404.757 329.51 404.746 331.052V331.317C404.746 332.974 404.949 334.354 405.355 335.458C405.772 336.552 406.392 337.369 407.215 337.911C408.048 338.453 409.079 338.724 410.309 338.724C411.517 338.724 412.538 338.427 413.371 337.833C414.204 337.239 414.84 336.38 415.277 335.255C415.715 334.13 415.934 332.765 415.934 331.161C415.934 328.776 415.475 326.963 414.559 325.724C413.652 324.484 412.288 323.864 410.465 323.864ZM428.137 322.505C430.001 322.505 431.397 322.974 432.324 323.911C433.251 324.849 433.715 326.343 433.715 328.396V339.786H432.496L432.215 336.817H432.121C431.757 337.453 431.314 338.021 430.793 338.521C430.272 339.01 429.632 339.396 428.871 339.677C428.121 339.958 427.204 340.099 426.121 340.099C425.027 340.099 424.09 339.916 423.309 339.552C422.538 339.187 421.939 338.656 421.512 337.958C421.095 337.26 420.887 336.411 420.887 335.411C420.887 333.724 421.585 332.442 422.98 331.567C424.376 330.682 426.382 330.182 428.996 330.067L432.152 329.911V328.677C432.152 326.937 431.809 325.698 431.121 324.958C430.434 324.218 429.418 323.849 428.074 323.849C427.199 323.849 426.355 323.963 425.543 324.192C424.741 324.411 423.923 324.729 423.09 325.146L422.59 323.833C423.402 323.448 424.272 323.13 425.199 322.88C426.137 322.63 427.116 322.505 428.137 322.505ZM432.137 331.146L429.168 331.271C427.012 331.375 425.371 331.76 424.246 332.427C423.121 333.093 422.559 334.093 422.559 335.427C422.559 336.5 422.892 337.323 423.559 337.896C424.236 338.468 425.173 338.755 426.371 338.755C428.236 338.755 429.658 338.224 430.637 337.161C431.626 336.099 432.126 334.651 432.137 332.817V331.146ZM445.934 322.505C446.382 322.505 446.803 322.531 447.199 322.583C447.595 322.635 447.965 322.708 448.309 322.802L448.059 324.255C447.715 324.161 447.366 324.093 447.012 324.052C446.658 324 446.277 323.974 445.871 323.974C445.069 323.974 444.35 324.125 443.715 324.427C443.09 324.729 442.559 325.161 442.121 325.724C441.684 326.286 441.35 326.963 441.121 327.755C440.892 328.547 440.777 329.432 440.777 330.411V339.786H439.184V322.802H440.543L440.699 326.005H440.793C441.053 325.349 441.418 324.76 441.887 324.239C442.366 323.708 442.944 323.286 443.621 322.974C444.298 322.661 445.069 322.505 445.934 322.505ZM457.574 322.505C459.439 322.505 460.835 322.974 461.762 323.911C462.689 324.849 463.152 326.343 463.152 328.396V339.786H461.934L461.652 336.817H461.559C461.194 337.453 460.751 338.021 460.23 338.521C459.71 339.01 459.069 339.396 458.309 339.677C457.559 339.958 456.642 340.099 455.559 340.099C454.465 340.099 453.527 339.916 452.746 339.552C451.975 339.187 451.376 338.656 450.949 337.958C450.533 337.26 450.324 336.411 450.324 335.411C450.324 333.724 451.022 332.442 452.418 331.567C453.814 330.682 455.819 330.182 458.434 330.067L461.59 329.911V328.677C461.59 326.937 461.246 325.698 460.559 324.958C459.871 324.218 458.855 323.849 457.512 323.849C456.637 323.849 455.793 323.963 454.98 324.192C454.178 324.411 453.361 324.729 452.527 325.146L452.027 323.833C452.84 323.448 453.71 323.13 454.637 322.88C455.574 322.63 456.553 322.505 457.574 322.505ZM461.574 331.146L458.605 331.271C456.449 331.375 454.809 331.76 453.684 332.427C452.559 333.093 451.996 334.093 451.996 335.427C451.996 336.5 452.329 337.323 452.996 337.896C453.673 338.468 454.611 338.755 455.809 338.755C457.673 338.755 459.095 338.224 460.074 337.161C461.064 336.099 461.564 334.651 461.574 332.817V331.146ZM473.105 347.474C470.97 347.474 469.309 347.062 468.121 346.239C466.944 345.416 466.355 344.265 466.355 342.786C466.355 341.64 466.715 340.651 467.434 339.817C468.152 338.994 469.126 338.5 470.355 338.333C469.866 338.104 469.465 337.791 469.152 337.396C468.85 337 468.699 336.541 468.699 336.021C468.699 335.437 468.882 334.896 469.246 334.396C469.611 333.885 470.158 333.416 470.887 332.989C469.908 332.635 469.137 332.036 468.574 331.192C468.012 330.338 467.73 329.312 467.73 328.114C467.73 326.968 467.975 325.974 468.465 325.13C468.954 324.286 469.647 323.635 470.543 323.177C471.449 322.708 472.517 322.474 473.746 322.474C474.121 322.474 474.46 322.484 474.762 322.505C475.074 322.526 475.361 322.562 475.621 322.614C475.882 322.656 476.116 322.713 476.324 322.786H481.809V323.911L478.309 324.146C478.767 324.698 479.111 325.297 479.34 325.942C479.569 326.578 479.684 327.25 479.684 327.958C479.684 329.646 479.152 330.984 478.09 331.974C477.027 332.963 475.548 333.458 473.652 333.458C473.132 333.458 472.621 333.411 472.121 333.317C471.486 333.692 471.001 334.073 470.668 334.458C470.335 334.833 470.168 335.302 470.168 335.864C470.168 336.218 470.272 336.51 470.48 336.739C470.689 336.958 470.991 337.13 471.387 337.255C471.783 337.369 472.267 337.427 472.84 337.427H475.824C477.668 337.427 479.079 337.802 480.059 338.552C481.038 339.302 481.527 340.406 481.527 341.864C481.527 343.646 480.793 345.026 479.324 346.005C477.866 346.984 475.793 347.474 473.105 347.474ZM473.215 346.146C474.704 346.146 475.944 345.984 476.934 345.661C477.934 345.338 478.684 344.859 479.184 344.224C479.684 343.599 479.934 342.823 479.934 341.896C479.934 341.135 479.751 340.547 479.387 340.13C479.022 339.713 478.507 339.427 477.84 339.271C477.173 339.104 476.387 339.021 475.48 339.021H472.637C471.73 339.021 470.923 339.146 470.215 339.396C469.507 339.635 468.954 340.021 468.559 340.552C468.173 341.083 467.98 341.791 467.98 342.677C467.98 343.812 468.423 344.672 469.309 345.255C470.204 345.849 471.507 346.146 473.215 346.146ZM473.715 332.192C475.121 332.192 476.199 331.838 476.949 331.13C477.699 330.422 478.074 329.396 478.074 328.052C478.074 326.614 477.689 325.536 476.918 324.817C476.147 324.099 475.069 323.739 473.684 323.739C472.34 323.739 471.283 324.125 470.512 324.896C469.751 325.656 469.371 326.729 469.371 328.114C469.371 329.406 469.736 330.411 470.465 331.13C471.194 331.838 472.277 332.192 473.715 332.192ZM491.996 322.505C492.444 322.505 492.866 322.531 493.262 322.583C493.658 322.635 494.027 322.708 494.371 322.802L494.121 324.255C493.777 324.161 493.428 324.093 493.074 324.052C492.72 324 492.34 323.974 491.934 323.974C491.132 323.974 490.413 324.125 489.777 324.427C489.152 324.729 488.621 325.161 488.184 325.724C487.746 326.286 487.413 326.963 487.184 327.755C486.954 328.547 486.84 329.432 486.84 330.411V339.786H485.246V322.802H486.605L486.762 326.005H486.855C487.116 325.349 487.48 324.76 487.949 324.239C488.428 323.708 489.007 323.286 489.684 322.974C490.361 322.661 491.132 322.505 491.996 322.505ZM503.637 322.505C505.501 322.505 506.897 322.974 507.824 323.911C508.751 324.849 509.215 326.343 509.215 328.396V339.786H507.996L507.715 336.817H507.621C507.257 337.453 506.814 338.021 506.293 338.521C505.772 339.01 505.132 339.396 504.371 339.677C503.621 339.958 502.704 340.099 501.621 340.099C500.527 340.099 499.59 339.916 498.809 339.552C498.038 339.187 497.439 338.656 497.012 337.958C496.595 337.26 496.387 336.411 496.387 335.411C496.387 333.724 497.085 332.442 498.48 331.567C499.876 330.682 501.882 330.182 504.496 330.067L507.652 329.911V328.677C507.652 326.937 507.309 325.698 506.621 324.958C505.934 324.218 504.918 323.849 503.574 323.849C502.699 323.849 501.855 323.963 501.043 324.192C500.241 324.411 499.423 324.729 498.59 325.146L498.09 323.833C498.902 323.448 499.772 323.13 500.699 322.88C501.637 322.63 502.616 322.505 503.637 322.505ZM507.637 331.146L504.668 331.271C502.512 331.375 500.871 331.76 499.746 332.427C498.621 333.093 498.059 334.093 498.059 335.427C498.059 336.5 498.392 337.323 499.059 337.896C499.736 338.468 500.673 338.755 501.871 338.755C503.736 338.755 505.158 338.224 506.137 337.161C507.126 336.099 507.626 334.651 507.637 332.817V331.146ZM522.199 322.474C524.387 322.474 526.079 323.208 527.277 324.677C528.486 326.146 529.09 328.312 529.09 331.177C529.09 333.093 528.803 334.718 528.23 336.052C527.658 337.375 526.84 338.38 525.777 339.067C524.725 339.755 523.46 340.099 521.98 340.099C520.96 340.099 520.069 339.948 519.309 339.646C518.559 339.333 517.934 338.916 517.434 338.396C516.934 337.864 516.548 337.281 516.277 336.646H516.168C516.199 337.239 516.225 337.859 516.246 338.505C516.267 339.151 516.277 339.76 516.277 340.333V347.302H514.684V322.802H515.996L516.184 326.192H516.277C516.559 325.547 516.954 324.937 517.465 324.364C517.975 323.791 518.621 323.333 519.402 322.989C520.184 322.646 521.116 322.474 522.199 322.474ZM521.996 323.864C520.715 323.864 519.647 324.146 518.793 324.708C517.949 325.26 517.319 326.073 516.902 327.146C516.496 328.208 516.288 329.51 516.277 331.052V331.317C516.277 332.974 516.48 334.354 516.887 335.458C517.303 336.552 517.923 337.369 518.746 337.911C519.579 338.453 520.611 338.724 521.84 338.724C523.048 338.724 524.069 338.427 524.902 337.833C525.736 337.239 526.371 336.38 526.809 335.255C527.246 334.13 527.465 332.765 527.465 331.161C527.465 328.776 527.007 326.963 526.09 325.724C525.184 324.484 523.819 323.864 521.996 323.864ZM535.309 315.474V323.411C535.309 323.869 535.298 324.297 535.277 324.692C535.267 325.088 535.246 325.489 535.215 325.896H535.324C535.605 325.25 536.007 324.672 536.527 324.161C537.059 323.651 537.71 323.244 538.48 322.942C539.262 322.64 540.163 322.489 541.184 322.489C542.475 322.489 543.559 322.713 544.434 323.161C545.319 323.599 545.991 324.271 546.449 325.177C546.908 326.083 547.137 327.25 547.137 328.677V339.786H545.574V328.771C545.574 327.083 545.189 325.843 544.418 325.052C543.647 324.26 542.527 323.864 541.059 323.864C539.809 323.864 538.757 324.109 537.902 324.599C537.048 325.078 536.402 325.807 535.965 326.786C535.527 327.755 535.309 328.968 535.309 330.427V339.786H533.73V315.474H535.309ZM562.527 322.802V339.786H560.949V322.802H562.527ZM561.762 316.521C562.158 316.521 562.449 316.64 562.637 316.88C562.824 317.109 562.918 317.422 562.918 317.817C562.918 318.213 562.824 318.526 562.637 318.755C562.449 318.984 562.158 319.099 561.762 319.099C561.387 319.099 561.105 318.984 560.918 318.755C560.73 318.526 560.637 318.213 560.637 317.817C560.637 317.422 560.73 317.109 560.918 316.88C561.105 316.64 561.387 316.521 561.762 316.521ZM575.684 322.474C577.59 322.474 579.053 322.974 580.074 323.974C581.095 324.974 581.605 326.541 581.605 328.677V339.786H580.043V328.771C580.043 327.083 579.658 325.843 578.887 325.052C578.116 324.26 576.996 323.864 575.527 323.864C573.663 323.864 572.236 324.411 571.246 325.505C570.267 326.588 569.777 328.229 569.777 330.427V339.786H568.199V322.802H569.48L569.715 325.896H569.809C570.111 325.26 570.522 324.687 571.043 324.177C571.574 323.656 572.225 323.244 572.996 322.942C573.767 322.63 574.663 322.474 575.684 322.474ZM601.355 322.505C603.22 322.505 604.616 322.974 605.543 323.911C606.47 324.849 606.934 326.343 606.934 328.396V339.786H605.715L605.434 336.817H605.34C604.975 337.453 604.533 338.021 604.012 338.521C603.491 339.01 602.85 339.396 602.09 339.677C601.34 339.958 600.423 340.099 599.34 340.099C598.246 340.099 597.309 339.916 596.527 339.552C595.757 339.187 595.158 338.656 594.73 337.958C594.314 337.26 594.105 336.411 594.105 335.411C594.105 333.724 594.803 332.442 596.199 331.567C597.595 330.682 599.6 330.182 602.215 330.067L605.371 329.911V328.677C605.371 326.937 605.027 325.698 604.34 324.958C603.652 324.218 602.637 323.849 601.293 323.849C600.418 323.849 599.574 323.963 598.762 324.192C597.96 324.411 597.142 324.729 596.309 325.146L595.809 323.833C596.621 323.448 597.491 323.13 598.418 322.88C599.355 322.63 600.335 322.505 601.355 322.505ZM605.355 331.146L602.387 331.271C600.23 331.375 598.59 331.76 597.465 332.427C596.34 333.093 595.777 334.093 595.777 335.427C595.777 336.5 596.111 337.323 596.777 337.896C597.454 338.468 598.392 338.755 599.59 338.755C601.454 338.755 602.876 338.224 603.855 337.161C604.845 336.099 605.345 334.651 605.355 332.817V331.146ZM151.043 384.099C148.72 384.099 146.949 383.369 145.73 381.911C144.522 380.442 143.918 378.307 143.918 375.505C143.918 372.567 144.559 370.328 145.84 368.786C147.121 367.244 148.908 366.474 151.199 366.474C152.178 366.474 153.027 366.625 153.746 366.927C154.475 367.229 155.085 367.64 155.574 368.161C156.074 368.672 156.46 369.255 156.73 369.911H156.855C156.814 369.359 156.783 368.765 156.762 368.13C156.741 367.494 156.73 366.911 156.73 366.38V359.474H158.309V383.786H157.027L156.824 380.677H156.73C156.449 381.302 156.059 381.875 155.559 382.396C155.069 382.916 154.454 383.333 153.715 383.646C152.975 383.948 152.085 384.099 151.043 384.099ZM151.215 382.724C153.215 382.724 154.637 382.104 155.48 380.864C156.324 379.614 156.746 377.833 156.746 375.521V375.271C156.746 372.875 156.324 371.041 155.48 369.771C154.637 368.489 153.262 367.849 151.355 367.849C149.47 367.849 148.027 368.505 147.027 369.817C146.038 371.13 145.543 373.036 145.543 375.536C145.543 377.89 146.007 379.677 146.934 380.896C147.871 382.114 149.298 382.724 151.215 382.724ZM178.043 375.271C178.043 376.583 177.882 377.781 177.559 378.864C177.236 379.937 176.757 380.864 176.121 381.646C175.486 382.427 174.694 383.031 173.746 383.458C172.809 383.885 171.715 384.099 170.465 384.099C169.277 384.099 168.22 383.89 167.293 383.474C166.366 383.047 165.579 382.442 164.934 381.661C164.298 380.88 163.814 379.953 163.48 378.88C163.147 377.797 162.98 376.593 162.98 375.271C162.98 373.448 163.283 371.88 163.887 370.567C164.501 369.244 165.376 368.234 166.512 367.536C167.658 366.828 169.027 366.474 170.621 366.474C172.267 366.474 173.637 366.849 174.73 367.599C175.835 368.338 176.663 369.369 177.215 370.692C177.767 372.015 178.043 373.541 178.043 375.271ZM164.605 375.271C164.605 376.76 164.819 378.062 165.246 379.177C165.673 380.291 166.319 381.161 167.184 381.786C168.059 382.411 169.163 382.724 170.496 382.724C171.861 382.724 172.98 382.411 173.855 381.786C174.73 381.161 175.376 380.286 175.793 379.161C176.21 378.036 176.418 376.739 176.418 375.271C176.418 373.843 176.22 372.573 175.824 371.458C175.428 370.343 174.803 369.468 173.949 368.833C173.095 368.187 171.98 367.864 170.605 367.864C168.637 367.864 167.142 368.521 166.121 369.833C165.111 371.146 164.605 372.958 164.605 375.271ZM189.543 384.099C187.855 384.099 186.428 383.75 185.262 383.052C184.105 382.343 183.23 381.338 182.637 380.036C182.053 378.724 181.762 377.172 181.762 375.38C181.762 373.515 182.1 371.922 182.777 370.599C183.454 369.265 184.408 368.244 185.637 367.536C186.866 366.828 188.309 366.474 189.965 366.474C190.777 366.474 191.533 366.547 192.23 366.692C192.928 366.838 193.559 367.041 194.121 367.302L193.699 368.692C193.116 368.432 192.496 368.234 191.84 368.099C191.184 367.963 190.553 367.896 189.949 367.896C188.553 367.896 187.366 368.203 186.387 368.817C185.418 369.422 184.673 370.286 184.152 371.411C183.642 372.526 183.387 373.843 183.387 375.364C183.387 376.791 183.605 378.057 184.043 379.161C184.48 380.255 185.152 381.119 186.059 381.755C186.965 382.38 188.126 382.692 189.543 382.692C190.366 382.692 191.147 382.609 191.887 382.442C192.637 382.276 193.319 382.062 193.934 381.802V383.239C193.382 383.489 192.741 383.692 192.012 383.849C191.293 384.015 190.47 384.099 189.543 384.099ZM211.152 366.802V383.786H209.871L209.637 380.724H209.543C209.251 381.349 208.84 381.916 208.309 382.427C207.777 382.937 207.126 383.343 206.355 383.646C205.585 383.948 204.689 384.099 203.668 384.099C202.366 384.099 201.272 383.875 200.387 383.427C199.512 382.968 198.85 382.281 198.402 381.364C197.954 380.448 197.73 379.302 197.73 377.927V366.802H199.309V377.771C199.309 379.468 199.689 380.718 200.449 381.521C201.22 382.323 202.345 382.724 203.824 382.724C205.074 382.724 206.121 382.484 206.965 382.005C207.819 381.526 208.465 380.802 208.902 379.833C209.35 378.854 209.574 377.635 209.574 376.177V366.802H211.152ZM234.387 366.474C236.022 366.474 237.314 366.948 238.262 367.896C239.21 368.843 239.684 370.338 239.684 372.38V383.786H238.137V372.442C238.137 370.869 237.777 369.713 237.059 368.974C236.34 368.234 235.392 367.864 234.215 367.864C232.6 367.864 231.335 368.338 230.418 369.286C229.512 370.224 229.059 371.703 229.059 373.724V383.786H227.496V372.442C227.496 371.39 227.329 370.531 226.996 369.864C226.673 369.187 226.22 368.687 225.637 368.364C225.053 368.031 224.366 367.864 223.574 367.864C222.522 367.864 221.611 368.083 220.84 368.521C220.069 368.948 219.475 369.614 219.059 370.521C218.642 371.416 218.434 372.557 218.434 373.942V383.786H216.855V366.802H218.137L218.371 369.583H218.465C218.746 369.031 219.121 368.521 219.59 368.052C220.059 367.583 220.637 367.203 221.324 366.911C222.022 366.619 222.84 366.474 223.777 366.474C224.996 366.474 226.027 366.75 226.871 367.302C227.725 367.843 228.319 368.651 228.652 369.724H228.762C229.22 368.703 229.928 367.906 230.887 367.333C231.855 366.76 233.022 366.474 234.387 366.474ZM251.574 366.474C253.022 366.474 254.225 366.812 255.184 367.489C256.152 368.166 256.871 369.093 257.34 370.271C257.819 371.448 258.059 372.797 258.059 374.317V375.458H245.793C245.793 377.791 246.329 379.583 247.402 380.833C248.486 382.083 250.033 382.708 252.043 382.708C253.095 382.708 254.007 382.625 254.777 382.458C255.559 382.281 256.423 381.984 257.371 381.567V383.021C256.538 383.396 255.704 383.666 254.871 383.833C254.038 384.01 253.079 384.099 251.996 384.099C250.277 384.099 248.835 383.744 247.668 383.036C246.512 382.317 245.637 381.307 245.043 380.005C244.46 378.703 244.168 377.182 244.168 375.442C244.168 373.744 244.449 372.218 245.012 370.864C245.585 369.51 246.418 368.442 247.512 367.661C248.616 366.869 249.97 366.474 251.574 366.474ZM251.559 367.833C249.934 367.833 248.616 368.375 247.605 369.458C246.605 370.531 246.017 372.083 245.84 374.114H256.418C256.418 372.875 256.241 371.781 255.887 370.833C255.533 369.885 254.996 369.151 254.277 368.63C253.569 368.099 252.663 367.833 251.559 367.833ZM270.215 366.474C272.121 366.474 273.585 366.974 274.605 367.974C275.626 368.974 276.137 370.541 276.137 372.677V383.786H274.574V372.771C274.574 371.083 274.189 369.843 273.418 369.052C272.647 368.26 271.527 367.864 270.059 367.864C268.194 367.864 266.767 368.411 265.777 369.505C264.798 370.588 264.309 372.229 264.309 374.427V383.786H262.73V366.802H264.012L264.246 369.896H264.34C264.642 369.26 265.053 368.687 265.574 368.177C266.105 367.656 266.757 367.244 267.527 366.942C268.298 366.63 269.194 366.474 270.215 366.474ZM286.23 382.739C286.72 382.739 287.173 382.703 287.59 382.63C288.017 382.557 288.392 382.463 288.715 382.349V383.661C288.382 383.776 287.991 383.875 287.543 383.958C287.095 384.052 286.6 384.099 286.059 384.099C285.1 384.099 284.303 383.922 283.668 383.567C283.033 383.203 282.553 382.656 282.23 381.927C281.908 381.187 281.746 380.25 281.746 379.114V368.114H279.215V367.177L281.73 366.692L282.277 362.692H283.324V366.802H288.621V368.114H283.324V379.021C283.324 380.239 283.548 381.166 283.996 381.802C284.454 382.427 285.199 382.739 286.23 382.739ZM292.105 382.677C292.105 382.218 292.21 381.869 292.418 381.63C292.626 381.38 292.934 381.255 293.34 381.255C293.788 381.255 294.116 381.38 294.324 381.63C294.533 381.869 294.637 382.218 294.637 382.677C294.637 383.135 294.533 383.489 294.324 383.739C294.116 383.989 293.788 384.114 293.34 384.114C292.934 384.114 292.626 383.989 292.418 383.739C292.21 383.489 292.105 383.135 292.105 382.677ZM314.668 383.786H313.043V362.396H305.637V360.942H322.074V362.396H314.668V383.786ZM326.652 359.474V367.411C326.652 367.869 326.642 368.297 326.621 368.692C326.611 369.088 326.59 369.489 326.559 369.896H326.668C326.949 369.25 327.35 368.672 327.871 368.161C328.402 367.651 329.053 367.244 329.824 366.942C330.605 366.64 331.507 366.489 332.527 366.489C333.819 366.489 334.902 366.713 335.777 367.161C336.663 367.599 337.335 368.271 337.793 369.177C338.251 370.083 338.48 371.25 338.48 372.677V383.786H336.918V372.771C336.918 371.083 336.533 369.843 335.762 369.052C334.991 368.26 333.871 367.864 332.402 367.864C331.152 367.864 330.1 368.109 329.246 368.599C328.392 369.078 327.746 369.807 327.309 370.786C326.871 371.755 326.652 372.968 326.652 374.427V383.786H325.074V359.474H326.652ZM345.559 366.802V383.786H343.98V366.802H345.559ZM344.793 360.521C345.189 360.521 345.48 360.64 345.668 360.88C345.855 361.109 345.949 361.422 345.949 361.817C345.949 362.213 345.855 362.526 345.668 362.755C345.48 362.984 345.189 363.099 344.793 363.099C344.418 363.099 344.137 362.984 343.949 362.755C343.762 362.526 343.668 362.213 343.668 361.817C343.668 361.422 343.762 361.109 343.949 360.88C344.137 360.64 344.418 360.521 344.793 360.521ZM361.855 379.333C361.855 380.343 361.6 381.208 361.09 381.927C360.59 382.635 359.855 383.177 358.887 383.552C357.918 383.916 356.725 384.099 355.309 384.099C354.132 384.099 353.079 383.994 352.152 383.786C351.225 383.578 350.449 383.323 349.824 383.021V381.458C350.605 381.843 351.47 382.156 352.418 382.396C353.366 382.635 354.34 382.755 355.34 382.755C357.09 382.755 358.35 382.458 359.121 381.864C359.892 381.271 360.277 380.458 360.277 379.427C360.277 378.75 360.085 378.192 359.699 377.755C359.324 377.307 358.783 376.922 358.074 376.599C357.366 376.276 356.512 375.948 355.512 375.614C354.47 375.26 353.543 374.911 352.73 374.567C351.928 374.213 351.298 373.75 350.84 373.177C350.382 372.593 350.152 371.802 350.152 370.802C350.152 369.437 350.699 368.375 351.793 367.614C352.887 366.854 354.355 366.474 356.199 366.474C357.22 366.474 358.168 366.573 359.043 366.771C359.928 366.958 360.73 367.203 361.449 367.505L360.887 368.849C360.241 368.547 359.496 368.302 358.652 368.114C357.809 367.927 356.965 367.833 356.121 367.833C354.736 367.833 353.652 368.078 352.871 368.567C352.09 369.057 351.699 369.776 351.699 370.724C351.699 371.453 351.887 372.026 352.262 372.442C352.637 372.849 353.173 373.192 353.871 373.474C354.569 373.744 355.397 374.047 356.355 374.38C357.345 374.724 358.257 375.083 359.09 375.458C359.934 375.833 360.605 376.317 361.105 376.911C361.605 377.505 361.855 378.312 361.855 379.333ZM376.027 359.474V367.411C376.027 367.869 376.017 368.297 375.996 368.692C375.986 369.088 375.965 369.489 375.934 369.896H376.043C376.324 369.25 376.725 368.672 377.246 368.161C377.777 367.651 378.428 367.244 379.199 366.942C379.98 366.64 380.882 366.489 381.902 366.489C383.194 366.489 384.277 366.713 385.152 367.161C386.038 367.599 386.71 368.271 387.168 369.177C387.626 370.083 387.855 371.25 387.855 372.677V383.786H386.293V372.771C386.293 371.083 385.908 369.843 385.137 369.052C384.366 368.26 383.246 367.864 381.777 367.864C380.527 367.864 379.475 368.109 378.621 368.599C377.767 369.078 377.121 369.807 376.684 370.786C376.246 371.755 376.027 372.968 376.027 374.427V383.786H374.449V359.474H376.027ZM399.793 366.474C401.241 366.474 402.444 366.812 403.402 367.489C404.371 368.166 405.09 369.093 405.559 370.271C406.038 371.448 406.277 372.797 406.277 374.317V375.458H394.012C394.012 377.791 394.548 379.583 395.621 380.833C396.704 382.083 398.251 382.708 400.262 382.708C401.314 382.708 402.225 382.625 402.996 382.458C403.777 382.281 404.642 381.984 405.59 381.567V383.021C404.757 383.396 403.923 383.666 403.09 383.833C402.257 384.01 401.298 384.099 400.215 384.099C398.496 384.099 397.053 383.744 395.887 383.036C394.73 382.317 393.855 381.307 393.262 380.005C392.678 378.703 392.387 377.182 392.387 375.442C392.387 373.744 392.668 372.218 393.23 370.864C393.803 369.51 394.637 368.442 395.73 367.661C396.835 366.869 398.189 366.474 399.793 366.474ZM399.777 367.833C398.152 367.833 396.835 368.375 395.824 369.458C394.824 370.531 394.236 372.083 394.059 374.114H404.637C404.637 372.875 404.46 371.781 404.105 370.833C403.751 369.885 403.215 369.151 402.496 368.63C401.788 368.099 400.882 367.833 399.777 367.833ZM412.559 383.786H410.965V359.474H412.559V383.786ZM425.73 366.474C427.918 366.474 429.611 367.208 430.809 368.677C432.017 370.146 432.621 372.312 432.621 375.177C432.621 377.093 432.335 378.718 431.762 380.052C431.189 381.375 430.371 382.38 429.309 383.067C428.257 383.755 426.991 384.099 425.512 384.099C424.491 384.099 423.6 383.948 422.84 383.646C422.09 383.333 421.465 382.916 420.965 382.396C420.465 381.864 420.079 381.281 419.809 380.646H419.699C419.73 381.239 419.757 381.859 419.777 382.505C419.798 383.151 419.809 383.76 419.809 384.333V391.302H418.215V366.802H419.527L419.715 370.192H419.809C420.09 369.547 420.486 368.937 420.996 368.364C421.507 367.791 422.152 367.333 422.934 366.989C423.715 366.646 424.647 366.474 425.73 366.474ZM425.527 367.864C424.246 367.864 423.178 368.146 422.324 368.708C421.48 369.26 420.85 370.073 420.434 371.146C420.027 372.208 419.819 373.51 419.809 375.052V375.317C419.809 376.974 420.012 378.354 420.418 379.458C420.835 380.552 421.454 381.369 422.277 381.911C423.111 382.453 424.142 382.724 425.371 382.724C426.579 382.724 427.6 382.427 428.434 381.833C429.267 381.239 429.902 380.38 430.34 379.255C430.777 378.13 430.996 376.765 430.996 375.161C430.996 372.776 430.538 370.963 429.621 369.724C428.715 368.484 427.35 367.864 425.527 367.864ZM447.887 379.333C447.887 380.343 447.632 381.208 447.121 381.927C446.621 382.635 445.887 383.177 444.918 383.552C443.949 383.916 442.757 384.099 441.34 384.099C440.163 384.099 439.111 383.994 438.184 383.786C437.257 383.578 436.48 383.323 435.855 383.021V381.458C436.637 381.843 437.501 382.156 438.449 382.396C439.397 382.635 440.371 382.755 441.371 382.755C443.121 382.755 444.382 382.458 445.152 381.864C445.923 381.271 446.309 380.458 446.309 379.427C446.309 378.75 446.116 378.192 445.73 377.755C445.355 377.307 444.814 376.922 444.105 376.599C443.397 376.276 442.543 375.948 441.543 375.614C440.501 375.26 439.574 374.911 438.762 374.567C437.96 374.213 437.329 373.75 436.871 373.177C436.413 372.593 436.184 371.802 436.184 370.802C436.184 369.437 436.73 368.375 437.824 367.614C438.918 366.854 440.387 366.474 442.23 366.474C443.251 366.474 444.199 366.573 445.074 366.771C445.96 366.958 446.762 367.203 447.48 367.505L446.918 368.849C446.272 368.547 445.527 368.302 444.684 368.114C443.84 367.927 442.996 367.833 442.152 367.833C440.767 367.833 439.684 368.078 438.902 368.567C438.121 369.057 437.73 369.776 437.73 370.724C437.73 371.453 437.918 372.026 438.293 372.442C438.668 372.849 439.204 373.192 439.902 373.474C440.6 373.744 441.428 374.047 442.387 374.38C443.376 374.724 444.288 375.083 445.121 375.458C445.965 375.833 446.637 376.317 447.137 376.911C447.637 377.505 447.887 378.312 447.887 379.333ZM465.074 382.739C465.564 382.739 466.017 382.703 466.434 382.63C466.861 382.557 467.236 382.463 467.559 382.349V383.661C467.225 383.776 466.835 383.875 466.387 383.958C465.939 384.052 465.444 384.099 464.902 384.099C463.944 384.099 463.147 383.922 462.512 383.567C461.876 383.203 461.397 382.656 461.074 381.927C460.751 381.187 460.59 380.25 460.59 379.114V368.114H458.059V367.177L460.574 366.692L461.121 362.692H462.168V366.802H467.465V368.114H462.168V379.021C462.168 380.239 462.392 381.166 462.84 381.802C463.298 382.427 464.043 382.739 465.074 382.739ZM485.293 375.271C485.293 376.583 485.132 377.781 484.809 378.864C484.486 379.937 484.007 380.864 483.371 381.646C482.736 382.427 481.944 383.031 480.996 383.458C480.059 383.885 478.965 384.099 477.715 384.099C476.527 384.099 475.47 383.89 474.543 383.474C473.616 383.047 472.829 382.442 472.184 381.661C471.548 380.88 471.064 379.953 470.73 378.88C470.397 377.797 470.23 376.593 470.23 375.271C470.23 373.448 470.533 371.88 471.137 370.567C471.751 369.244 472.626 368.234 473.762 367.536C474.908 366.828 476.277 366.474 477.871 366.474C479.517 366.474 480.887 366.849 481.98 367.599C483.085 368.338 483.913 369.369 484.465 370.692C485.017 372.015 485.293 373.541 485.293 375.271ZM471.855 375.271C471.855 376.76 472.069 378.062 472.496 379.177C472.923 380.291 473.569 381.161 474.434 381.786C475.309 382.411 476.413 382.724 477.746 382.724C479.111 382.724 480.23 382.411 481.105 381.786C481.98 381.161 482.626 380.286 483.043 379.161C483.46 378.036 483.668 376.739 483.668 375.271C483.668 373.843 483.47 372.573 483.074 371.458C482.678 370.343 482.053 369.468 481.199 368.833C480.345 368.187 479.23 367.864 477.855 367.864C475.887 367.864 474.392 368.521 473.371 369.833C472.361 371.146 471.855 372.958 471.855 375.271ZM499.855 359.474V366.38C499.855 366.974 499.845 367.625 499.824 368.333C499.803 369.041 499.783 369.63 499.762 370.099H499.855C500.262 369.047 500.97 368.177 501.98 367.489C502.991 366.802 504.251 366.458 505.762 366.458C507.97 366.458 509.673 367.203 510.871 368.692C512.079 370.182 512.684 372.364 512.684 375.239C512.684 377 512.413 378.547 511.871 379.88C511.329 381.203 510.522 382.239 509.449 382.989C508.387 383.729 507.053 384.099 505.449 384.099C504.001 384.099 502.819 383.797 501.902 383.192C500.986 382.578 500.319 381.812 499.902 380.896H499.777L499.48 383.786H498.277V359.474H499.855ZM505.59 367.833C504.246 367.833 503.152 368.125 502.309 368.708C501.465 369.281 500.845 370.119 500.449 371.224C500.053 372.328 499.855 373.677 499.855 375.271V375.521C499.855 377.864 500.283 379.651 501.137 380.88C501.991 382.109 503.376 382.724 505.293 382.724C507.189 382.724 508.621 382.078 509.59 380.786C510.569 379.484 511.059 377.635 511.059 375.239C511.059 372.791 510.605 370.948 509.699 369.708C508.793 368.458 507.423 367.833 505.59 367.833ZM530.559 366.802V383.786H529.277L529.043 380.724H528.949C528.658 381.349 528.246 381.916 527.715 382.427C527.184 382.937 526.533 383.343 525.762 383.646C524.991 383.948 524.095 384.099 523.074 384.099C521.772 384.099 520.678 383.875 519.793 383.427C518.918 382.968 518.257 382.281 517.809 381.364C517.361 380.448 517.137 379.302 517.137 377.927V366.802H518.715V377.771C518.715 379.468 519.095 380.718 519.855 381.521C520.626 382.323 521.751 382.724 523.23 382.724C524.48 382.724 525.527 382.484 526.371 382.005C527.225 381.526 527.871 380.802 528.309 379.833C528.757 378.854 528.98 377.635 528.98 376.177V366.802H530.559ZM543.746 366.474C545.652 366.474 547.116 366.974 548.137 367.974C549.158 368.974 549.668 370.541 549.668 372.677V383.786H548.105V372.771C548.105 371.083 547.72 369.843 546.949 369.052C546.178 368.26 545.059 367.864 543.59 367.864C541.725 367.864 540.298 368.411 539.309 369.505C538.329 370.588 537.84 372.229 537.84 374.427V383.786H536.262V366.802H537.543L537.777 369.896H537.871C538.173 369.26 538.585 368.687 539.105 368.177C539.637 367.656 540.288 367.244 541.059 366.942C541.829 366.63 542.725 366.474 543.746 366.474ZM561.324 384.099C559.001 384.099 557.23 383.369 556.012 381.911C554.803 380.442 554.199 378.307 554.199 375.505C554.199 372.567 554.84 370.328 556.121 368.786C557.402 367.244 559.189 366.474 561.48 366.474C562.46 366.474 563.309 366.625 564.027 366.927C564.757 367.229 565.366 367.64 565.855 368.161C566.355 368.672 566.741 369.255 567.012 369.911H567.137C567.095 369.359 567.064 368.765 567.043 368.13C567.022 367.494 567.012 366.911 567.012 366.38V359.474H568.59V383.786H567.309L567.105 380.677H567.012C566.73 381.302 566.34 381.875 565.84 382.396C565.35 382.916 564.736 383.333 563.996 383.646C563.257 383.948 562.366 384.099 561.324 384.099ZM561.496 382.724C563.496 382.724 564.918 382.104 565.762 380.864C566.605 379.614 567.027 377.833 567.027 375.521V375.271C567.027 372.875 566.605 371.041 565.762 369.771C564.918 368.489 563.543 367.849 561.637 367.849C559.751 367.849 558.309 368.505 557.309 369.817C556.319 371.13 555.824 373.036 555.824 375.536C555.824 377.89 556.288 379.677 557.215 380.896C558.152 382.114 559.579 382.724 561.496 382.724ZM575.84 383.786H574.246V359.474H575.84V383.786ZM587.918 366.474C589.366 366.474 590.569 366.812 591.527 367.489C592.496 368.166 593.215 369.093 593.684 370.271C594.163 371.448 594.402 372.797 594.402 374.317V375.458H582.137C582.137 377.791 582.673 379.583 583.746 380.833C584.829 382.083 586.376 382.708 588.387 382.708C589.439 382.708 590.35 382.625 591.121 382.458C591.902 382.281 592.767 381.984 593.715 381.567V383.021C592.882 383.396 592.048 383.666 591.215 383.833C590.382 384.01 589.423 384.099 588.34 384.099C586.621 384.099 585.178 383.744 584.012 383.036C582.855 382.317 581.98 381.307 581.387 380.005C580.803 378.703 580.512 377.182 580.512 375.442C580.512 373.744 580.793 372.218 581.355 370.864C581.928 369.51 582.762 368.442 583.855 367.661C584.96 366.869 586.314 366.474 587.918 366.474ZM587.902 367.833C586.277 367.833 584.96 368.375 583.949 369.458C582.949 370.531 582.361 372.083 582.184 374.114H592.762C592.762 372.875 592.585 371.781 592.23 370.833C591.876 369.885 591.34 369.151 590.621 368.63C589.913 368.099 589.007 367.833 587.902 367.833ZM151.699 428.099C150.012 428.099 148.585 427.75 147.418 427.052C146.262 426.343 145.387 425.338 144.793 424.036C144.21 422.724 143.918 421.172 143.918 419.38C143.918 417.515 144.257 415.922 144.934 414.599C145.611 413.265 146.564 412.244 147.793 411.536C149.022 410.828 150.465 410.474 152.121 410.474C152.934 410.474 153.689 410.547 154.387 410.692C155.085 410.838 155.715 411.041 156.277 411.302L155.855 412.692C155.272 412.432 154.652 412.234 153.996 412.099C153.34 411.963 152.71 411.896 152.105 411.896C150.71 411.896 149.522 412.203 148.543 412.817C147.574 413.422 146.829 414.286 146.309 415.411C145.798 416.526 145.543 417.843 145.543 419.364C145.543 420.791 145.762 422.057 146.199 423.161C146.637 424.255 147.309 425.119 148.215 425.755C149.121 426.38 150.283 426.692 151.699 426.692C152.522 426.692 153.303 426.609 154.043 426.442C154.793 426.276 155.475 426.062 156.09 425.802V427.239C155.538 427.489 154.897 427.692 154.168 427.849C153.449 428.015 152.626 428.099 151.699 428.099ZM161.684 403.474V411.411C161.684 411.869 161.673 412.297 161.652 412.692C161.642 413.088 161.621 413.489 161.59 413.896H161.699C161.98 413.25 162.382 412.672 162.902 412.161C163.434 411.651 164.085 411.244 164.855 410.942C165.637 410.64 166.538 410.489 167.559 410.489C168.85 410.489 169.934 410.713 170.809 411.161C171.694 411.599 172.366 412.271 172.824 413.177C173.283 414.083 173.512 415.25 173.512 416.677V427.786H171.949V416.771C171.949 415.083 171.564 413.843 170.793 413.052C170.022 412.26 168.902 411.864 167.434 411.864C166.184 411.864 165.132 412.109 164.277 412.599C163.423 413.078 162.777 413.807 162.34 414.786C161.902 415.755 161.684 416.968 161.684 418.427V427.786H160.105V403.474H161.684ZM184.949 410.505C186.814 410.505 188.21 410.974 189.137 411.911C190.064 412.849 190.527 414.343 190.527 416.396V427.786H189.309L189.027 424.817H188.934C188.569 425.453 188.126 426.021 187.605 426.521C187.085 427.01 186.444 427.396 185.684 427.677C184.934 427.958 184.017 428.099 182.934 428.099C181.84 428.099 180.902 427.916 180.121 427.552C179.35 427.187 178.751 426.656 178.324 425.958C177.908 425.26 177.699 424.411 177.699 423.411C177.699 421.724 178.397 420.442 179.793 419.567C181.189 418.682 183.194 418.182 185.809 418.067L188.965 417.911V416.677C188.965 414.937 188.621 413.698 187.934 412.958C187.246 412.218 186.23 411.849 184.887 411.849C184.012 411.849 183.168 411.963 182.355 412.192C181.553 412.411 180.736 412.729 179.902 413.146L179.402 411.833C180.215 411.448 181.085 411.13 182.012 410.88C182.949 410.63 183.928 410.505 184.949 410.505ZM188.949 419.146L185.98 419.271C183.824 419.375 182.184 419.76 181.059 420.427C179.934 421.093 179.371 422.093 179.371 423.427C179.371 424.5 179.704 425.323 180.371 425.896C181.048 426.468 181.986 426.755 183.184 426.755C185.048 426.755 186.47 426.224 187.449 425.161C188.439 424.099 188.939 422.651 188.949 420.817V419.146ZM203.465 410.474C205.371 410.474 206.835 410.974 207.855 411.974C208.876 412.974 209.387 414.541 209.387 416.677V427.786H207.824V416.771C207.824 415.083 207.439 413.843 206.668 413.052C205.897 412.26 204.777 411.864 203.309 411.864C201.444 411.864 200.017 412.411 199.027 413.505C198.048 414.588 197.559 416.229 197.559 418.427V427.786H195.98V410.802H197.262L197.496 413.896H197.59C197.892 413.26 198.303 412.687 198.824 412.177C199.355 411.656 200.007 411.244 200.777 410.942C201.548 410.63 202.444 410.474 203.465 410.474ZM219.387 435.474C217.251 435.474 215.59 435.062 214.402 434.239C213.225 433.416 212.637 432.265 212.637 430.786C212.637 429.64 212.996 428.651 213.715 427.817C214.434 426.994 215.408 426.5 216.637 426.333C216.147 426.104 215.746 425.791 215.434 425.396C215.132 425 214.98 424.541 214.98 424.021C214.98 423.437 215.163 422.896 215.527 422.396C215.892 421.885 216.439 421.416 217.168 420.989C216.189 420.635 215.418 420.036 214.855 419.192C214.293 418.338 214.012 417.312 214.012 416.114C214.012 414.968 214.257 413.974 214.746 413.13C215.236 412.286 215.928 411.635 216.824 411.177C217.73 410.708 218.798 410.474 220.027 410.474C220.402 410.474 220.741 410.484 221.043 410.505C221.355 410.526 221.642 410.562 221.902 410.614C222.163 410.656 222.397 410.713 222.605 410.786H228.09V411.911L224.59 412.146C225.048 412.698 225.392 413.297 225.621 413.942C225.85 414.578 225.965 415.25 225.965 415.958C225.965 417.646 225.434 418.984 224.371 419.974C223.309 420.963 221.829 421.458 219.934 421.458C219.413 421.458 218.902 421.411 218.402 421.317C217.767 421.692 217.283 422.073 216.949 422.458C216.616 422.833 216.449 423.302 216.449 423.864C216.449 424.218 216.553 424.51 216.762 424.739C216.97 424.958 217.272 425.13 217.668 425.255C218.064 425.369 218.548 425.427 219.121 425.427H222.105C223.949 425.427 225.361 425.802 226.34 426.552C227.319 427.302 227.809 428.406 227.809 429.864C227.809 431.646 227.074 433.026 225.605 434.005C224.147 434.984 222.074 435.474 219.387 435.474ZM219.496 434.146C220.986 434.146 222.225 433.984 223.215 433.661C224.215 433.338 224.965 432.859 225.465 432.224C225.965 431.599 226.215 430.823 226.215 429.896C226.215 429.135 226.033 428.547 225.668 428.13C225.303 427.713 224.788 427.427 224.121 427.271C223.454 427.104 222.668 427.021 221.762 427.021H218.918C218.012 427.021 217.204 427.146 216.496 427.396C215.788 427.635 215.236 428.021 214.84 428.552C214.454 429.083 214.262 429.791 214.262 430.677C214.262 431.812 214.704 432.672 215.59 433.255C216.486 433.849 217.788 434.146 219.496 434.146ZM219.996 420.192C221.402 420.192 222.48 419.838 223.23 419.13C223.98 418.422 224.355 417.396 224.355 416.052C224.355 414.614 223.97 413.536 223.199 412.817C222.428 412.099 221.35 411.739 219.965 411.739C218.621 411.739 217.564 412.125 216.793 412.896C216.033 413.656 215.652 414.729 215.652 416.114C215.652 417.406 216.017 418.411 216.746 419.13C217.475 419.838 218.559 420.192 219.996 420.192ZM237.949 410.474C239.397 410.474 240.6 410.812 241.559 411.489C242.527 412.166 243.246 413.093 243.715 414.271C244.194 415.448 244.434 416.797 244.434 418.317V419.458H232.168C232.168 421.791 232.704 423.583 233.777 424.833C234.861 426.083 236.408 426.708 238.418 426.708C239.47 426.708 240.382 426.625 241.152 426.458C241.934 426.281 242.798 425.984 243.746 425.567V427.021C242.913 427.396 242.079 427.666 241.246 427.833C240.413 428.01 239.454 428.099 238.371 428.099C236.652 428.099 235.21 427.744 234.043 427.036C232.887 426.317 232.012 425.307 231.418 424.005C230.835 422.703 230.543 421.182 230.543 419.442C230.543 417.744 230.824 416.218 231.387 414.864C231.96 413.51 232.793 412.442 233.887 411.661C234.991 410.869 236.345 410.474 237.949 410.474ZM237.934 411.833C236.309 411.833 234.991 412.375 233.98 413.458C232.98 414.531 232.392 416.083 232.215 418.114H242.793C242.793 416.875 242.616 415.781 242.262 414.833C241.908 413.885 241.371 413.151 240.652 412.63C239.944 412.099 239.038 411.833 237.934 411.833ZM259.73 423.333C259.73 424.343 259.475 425.208 258.965 425.927C258.465 426.635 257.73 427.177 256.762 427.552C255.793 427.916 254.6 428.099 253.184 428.099C252.007 428.099 250.954 427.994 250.027 427.786C249.1 427.578 248.324 427.323 247.699 427.021V425.458C248.48 425.843 249.345 426.156 250.293 426.396C251.241 426.635 252.215 426.755 253.215 426.755C254.965 426.755 256.225 426.458 256.996 425.864C257.767 425.271 258.152 424.458 258.152 423.427C258.152 422.75 257.96 422.192 257.574 421.755C257.199 421.307 256.658 420.922 255.949 420.599C255.241 420.276 254.387 419.948 253.387 419.614C252.345 419.26 251.418 418.911 250.605 418.567C249.803 418.213 249.173 417.75 248.715 417.177C248.257 416.593 248.027 415.802 248.027 414.802C248.027 413.437 248.574 412.375 249.668 411.614C250.762 410.854 252.23 410.474 254.074 410.474C255.095 410.474 256.043 410.573 256.918 410.771C257.803 410.958 258.605 411.203 259.324 411.505L258.762 412.849C258.116 412.547 257.371 412.302 256.527 412.114C255.684 411.927 254.84 411.833 253.996 411.833C252.611 411.833 251.527 412.078 250.746 412.567C249.965 413.057 249.574 413.776 249.574 414.724C249.574 415.453 249.762 416.026 250.137 416.442C250.512 416.849 251.048 417.192 251.746 417.474C252.444 417.744 253.272 418.047 254.23 418.38C255.22 418.724 256.132 419.083 256.965 419.458C257.809 419.833 258.48 420.317 258.98 420.911C259.48 421.505 259.73 422.312 259.73 423.333ZM263.762 426.677C263.762 426.218 263.866 425.869 264.074 425.63C264.283 425.38 264.59 425.255 264.996 425.255C265.444 425.255 265.772 425.38 265.98 425.63C266.189 425.869 266.293 426.218 266.293 426.677C266.293 427.135 266.189 427.489 265.98 427.739C265.772 427.989 265.444 428.114 264.996 428.114C264.59 428.114 264.283 427.989 264.074 427.739C263.866 427.489 263.762 427.135 263.762 426.677Z" fill="white"/>
<path d="M52.5432 69.608H95.9244C114.485 69.608 128.532 72.214 138.066 77.4261C147.601 82.6382 152.368 91.7912 152.368 104.885C152.368 110.161 151.51 114.928 149.793 119.187C148.141 123.445 145.725 126.941 142.547 129.674C139.369 132.407 135.492 134.187 130.915 135.014V135.967C135.555 136.92 139.751 138.573 143.501 140.925C147.251 143.213 150.238 146.582 152.463 151.031C154.751 155.417 155.895 161.265 155.895 168.574C155.895 177.028 153.83 184.274 149.698 190.313C145.567 196.351 139.655 200.991 131.964 204.233C124.337 207.411 115.247 209 104.696 209H52.5432V69.608ZM82.0996 124.812H99.2614C107.842 124.812 113.785 123.477 117.091 120.807C120.396 118.074 122.049 114.07 122.049 108.794C122.049 103.455 120.078 99.6411 116.137 97.3529C112.26 95.0011 106.094 93.8252 97.6406 93.8252H82.0996V124.812ZM82.0996 148.266V184.592H101.359C110.258 184.592 116.455 182.876 119.951 179.444C123.447 176.011 125.195 171.403 125.195 165.619C125.195 162.186 124.432 159.167 122.907 156.561C121.381 153.955 118.807 151.921 115.184 150.459C111.624 148.997 106.698 148.266 100.406 148.266H82.0996ZM210.527 209H181.447V60.6457H210.527V209ZM338.001 155.512C338.001 164.411 336.794 172.293 334.378 179.158C332.026 186.022 328.562 191.838 323.986 196.605C319.473 201.309 314.007 204.868 307.587 207.284C301.231 209.699 294.048 210.907 286.039 210.907C278.539 210.907 271.642 209.699 265.35 207.284C259.121 204.868 253.686 201.309 249.046 196.605C244.469 191.838 240.91 186.022 238.367 179.158C235.889 172.293 234.649 164.411 234.649 155.512C234.649 143.69 236.747 133.679 240.942 125.479C245.137 117.28 251.112 111.051 258.866 106.792C266.621 102.533 275.869 100.404 286.611 100.404C296.59 100.404 305.426 102.533 313.117 106.792C320.871 111.051 326.941 117.28 331.327 125.479C335.777 133.679 338.001 143.69 338.001 155.512ZM264.301 155.512C264.301 162.504 265.064 168.384 266.589 173.151C268.115 177.918 270.498 181.509 273.74 183.925C276.982 186.34 281.208 187.548 286.421 187.548C291.569 187.548 295.732 186.34 298.911 183.925C302.152 181.509 304.504 177.918 305.966 173.151C307.491 168.384 308.254 162.504 308.254 155.512C308.254 148.457 307.491 142.609 305.966 137.969C304.504 133.266 302.152 129.738 298.911 127.386C295.669 125.034 291.442 123.858 286.23 123.858C278.539 123.858 272.945 126.496 269.449 131.772C266.017 137.048 264.301 144.961 264.301 155.512ZM405.314 210.907C394.762 210.907 385.768 209 378.332 205.186C370.895 201.309 365.238 195.334 361.36 187.262C357.483 179.189 355.544 168.86 355.544 156.275C355.544 143.245 357.737 132.63 362.123 124.43C366.573 116.167 372.706 110.097 380.524 106.22C388.406 102.343 397.527 100.404 407.888 100.404C415.261 100.404 421.617 101.135 426.957 102.597C432.359 103.995 437.063 105.68 441.067 107.65L432.487 130.151C427.91 128.308 423.651 126.814 419.711 125.67C415.77 124.462 411.829 123.858 407.888 123.858C402.803 123.858 398.576 125.066 395.207 127.481C391.839 129.833 389.328 133.393 387.675 138.16C386.023 142.927 385.196 148.902 385.196 156.084C385.196 163.14 386.086 168.988 387.866 173.628C389.646 178.268 392.22 181.732 395.589 184.02C398.958 186.245 403.057 187.357 407.888 187.357C413.926 187.357 419.297 186.563 424.001 184.973C428.705 183.321 433.281 181.033 437.73 178.109V202.993C433.281 205.79 428.609 207.792 423.715 209C418.884 210.271 412.751 210.907 405.314 210.907ZM491.599 60.6457V127.005C491.599 131.009 491.441 135.014 491.123 139.018C490.805 143.022 490.455 147.027 490.074 151.031H490.455C492.426 148.234 494.428 145.47 496.462 142.736C498.56 140.003 500.784 137.365 503.136 134.823L532.979 102.406H565.777L523.444 148.648L568.351 209H534.79L504.089 165.809L491.599 175.821V209H462.52V60.6457H491.599Z" fill="white"/>
</svg>
